<svg xmlns="http://www.w3.org/2000/svg" viewBox="6 4 498 498" fill="currentColor">
  <!-- The wave and the counter of the "A" are cutouts in the mark, so the disc
       behind them is what makes them read white on any surface. -->
  <circle cx="254.99" cy="253.15" r="235" fill="#fff" />
  <path d="M225.48 116.24c-1.38-1.82-2.95-2.78-4.7-2.78-1.44 0-2.75.64-3.6 1.19-13.26 10.42-31.4 54.53-46.27 112.67l13.16.15c26 .29 52.84.6 79.38 1.01-6.99-26.63-13.61-49.45-19.67-67.88-8.86-26.93-14.84-39-18.3-44.36z" />
  <path
    fill-rule="evenodd"
    d="M254.99 4.15c-137.52 0-249 111.48-249 249 0 137.52 111.48 249 249 249s249-111.48 249-249c0-137.52-111.48-248.99-249-248.99zM434.04 257.67c-.02.02-.04.03-.06.05-.27.22-.54.42-.83.62-.09.06-.18.13-.28.19-.19.12-.39.24-.58.35-.18.11-.36.21-.54.31-.01.01-.02.01-.03.02-1.83.96-3.92 1.51-6.13 1.51H307.64c.94 3.91 1.97 8.35 3.09 13.18 6.46 27.91 23.64 102.06 41.88 102.06h.36l.2-.03h.35c14.25 0 21.52-20.6 37.46-65.74l.19-.55c2.56-7.25 5.45-15.43 8.58-24.08l.8-2.21c.81-2.16 2.89-3.7 5.34-3.7 3.15 0 5.71 2.56 5.71 5.71 0 .57-.09 1.12-.24 1.64l-.66 2.22c-1.66 5.37-3.43 12.69-5.47 21.16-9.5 39.37-23.85 98.85-60.67 98.85h-.27c-23.79-.19-38.03-38.22-44.11-54.46-11.37-30.37-19.97-62.73-28.27-94.07h-103.4l-22.54 72.14-.33-.26c-2.06 3.24-5.68 5.32-9.67 5.32-6.29 0-11.44-5.12-11.47-11.41l.02-.39 1.36-8.16c3.11-18.54 6.84-37.78 11.1-57.23H85.97l-.17-.17c-8.32-1.2-14.71-8.54-14.71-17.1 0-8.39 5.94-15.54 14.12-16.99.75-.1 2.27-.23 5.36-.23h2.23c14.53.25 29.95.48 46.86.7 23.93-97.24 51.65-146.6 82.4-146.74 32.99 0 57.47 75.12 77.06 148.61l.08.29c40.25.81 83.15 1.98 124.86 4.97l1.75.16c.67.01 1.33.08 1.97.18l.24.02.21.05.11.02c6.07 1.22 10.57 6.54 10.57 12.94 0 4.54-1.9 8.23-4.87 10.66z"
  />
</svg>
